PathFileType	4	(x/y/z)	S04_P20_T04.trc
DataRate	CameraRate	NumFrames	NumMarkers	Units	OrigDataRate	OrigDataStartFrame	OrigNumFrames
240	240	9	51	mm	240	224	358
Frame#	Time	Sternum			R.Acromium			L.Acromium			Top.Head			R.ASIS			L.ASIS			R.PSIS			L.PSIS			R.Great.Tro			L.Great.Tro			R.Iliac.Crest			L.Iliac.Crest			V.Sacral			R.Thigh.Upper.Post			R.Thigh.Lower.Ant			R.Thigh.Lower.Post			R.Thigh.Upper.Ant			R.Knee.Lat			R.Knee.Med			R.Shank.Upper.Post			R.Shank.Lower.Ant			R.Shank.Lower.Post			R.Shank.Upper.Ant			R.Ankle.Lat			R.Ankle.Med			R.Heel.Upper			R.Heel.Med			R.Heel.Lat			R.Toe.Lat			R.Toe.Med			R.Toe.Tip			L.Thigh.Upper.Post			L.Thigh.Lower.Ant			L.Thigh.Lower.Post			L.Thigh.Upper.Ant			L.Knee.Lat			L.Knee.Med			L.Shank.Upper.Post			L.Shank.Lower.Ant			L.Shank.Lower.Post			L.Shank.Upper.Ant			L.Ankle.Lat			L.Ankle.Med			L.Heel.Upper			L.Heel.Med			L.Heel.Lat			L.Toe.Lat			L.Toe.Med			L.Toe.Tip			Cervical.Spine			Back			
		X1	Y1	Z1	X2	Y2	Z2	X3	Y3	Z3	X4	Y4	Z4	X5	Y5	Z5	X6	Y6	Z6	X7	Y7	Z7	X8	Y8	Z8	X9	Y9	Z9	X10	Y10	Z10	X11	Y11	Z11	X12	Y12	Z12	X13	Y13	Z13	X14	Y14	Z14	X15	Y15	Z15	X16	Y16	Z16	X17	Y17	Z17	X18	Y18	Z18	X19	Y19	Z19	X20	Y20	Z20	X21	Y21	Z21	X22	Y22	Z22	X23	Y23	Z23	X24	Y24	Z24	X25	Y25	Z25	X26	Y26	Z26	X27	Y27	Z27	X28	Y28	Z28	X29	Y29	Z29	X30	Y30	Z30	X31	Y31	Z31	X32	Y32	Z32	X33	Y33	Z33	X34	Y34	Z34	X35	Y35	Z35	X36	Y36	Z36	X37	Y37	Z37	X38	Y38	Z38	X39	Y39	Z39	X40	Y40	Z40	X41	Y41	Z41	X42	Y42	Z42	X43	Y43	Z43	X44	Y44	Z44	X45	Y45	Z45	X46	Y46	Z46	X47	Y47	Z47	X48	Y48	Z48	X49	Y49	Z49	X50	Y50	Z50	X51	Y51	Z51	

224	0.92917	-154.73	1264.9	265.8	-248.14	1495.3	456.32	-294.14	1486.4	109.59	-147.52	1807.4	262.73	-194.54	984.3	410.6	-197.64	1006.6	161.99	-407.78	1020	308.93	-400.54	1022.7	228.04	-291.89	906.91	469.28	-302.11	917.17	90.188	-277.14	1075.6	451.8	-303.66	1086	116.22	-423.27	978.87	268.88	-338.74	656.53	449.06	-277.59	564.03	412.4	-352.88	567.57	434.07	-251.33	669.86	434.57	-348.87	494.36	422.3	-370.84	499.35	289.53	-477.02	292.04	410.03	-429.97	202.03	365.69	-493.76	225	390.2	-415.94	269.17	392.75	-508.11	111.45	365.88	-491.44	124.2	278.55	-580.02	84.088	311.32	-572.55	51.808	282.9	-577.01	53.474	347.02	-408.63	38.435	398.28	-370.31	36.577	278.26	-307.03	48.548	327.33	-245.11	677.95	101.45	-135.57	615.31	95.118	-204.19	598	112.6	-180.87	692.71	80.427	-132.24	526.65	112.18	-110.72	517.8	237.69	-148.96	329.1	120.45	-53.069	274.21	107.81	-114.14	259.2	124.22	-87.546	342.9	103.14	-4.042	120.49	123.03	5.2339	137.1	214.82	-58.761	62.663	177.08	-39.524	45.795	211.61	-45.331	37.379	150.51	122.65	99.123	95.179	156.17	128.77	205.62	199.17	158.32	151.94	-313.93	1551.5	293.65	-413.49	1293.6	278.06
225	0.93333	-149.15	1264.1	265.2	-242.48	1494.6	455.78	-288.61	1485.5	109.04	-141.69	1806.5	262.19	-188.84	983.62	410.3	-191.84	1005.9	161.65	-402.01	1019.2	308.49	-394.79	1021.9	227.6	-286.27	906.25	468.94	-296.27	916.33	89.853	-271.42	1074.9	451.43	-298.03	1085.1	115.83	-417.49	978.05	268.46	-333.57	656.02	448.76	-272.54	563.42	412.16	-347.87	567.1	433.74	-246.13	669.21	434.28	-344.29	493.78	422.07	-365.96	498.96	289.27	-474.41	292.69	409.82	-428.22	202.17	365.51	-491.81	225.78	389.91	-413.51	269.15	392.57	-507.36	112.33	365.68	-490.73	125.02	278.4	-579.47	85.349	311.06	-572.19	53.041	282.63	-576.71	54.698	346.73	-408.51	38.489	398.2	-370.08	36.45	278.24	-306.7	48	327.34	-239.77	677.08	101.35	-130.31	614.26	95.098	-198.95	597.1	112.67	-175.51	691.69	80.232	-126.92	525.73	112.3	-105.82	516.88	237.94	-142.72	328.01	120.41	-46.505	273.59	108.09	-107.59	258.28	124.25	-81.298	342.11	103.34	3.255	120.17	123.36	12.171	136.73	215.21	-51.363	62.06	177.16	-32.001	45.232	211.78	-37.63	36.875	150.61	130.16	99.696	95.846	163.17	129.4	206.38	206.14	159.33	152.89	-308.41	1550.8	293.14	-407.95	1292.8	277.69
226	0.9375	-143.57	1263.3	264.58	-236.81	1493.8	455.21	-283.1	1484.7	108.46	-135.87	1805.7	261.64	-183.13	982.97	409.97	-186.01	1005.2	161.28	-396.22	1018.4	308.04	-389.03	1021.1	227.13	-280.62	905.6	468.59	-290.39	915.52	89.506	-265.7	1074.1	451.05	-292.39	1084.2	115.42	-411.69	977.24	268.02	-328.26	655.5	448.45	-267.31	562.82	411.94	-342.69	566.6	433.4	-240.79	668.57	433.99	-339.52	493.18	421.84	-360.88	498.53	289.03	-471.66	293.38	409.64	-426.37	202.35	365.35	-489.76	226.61	389.66	-410.95	269.14	392.42	-506.54	113.29	365.51	-489.94	125.91	278.27	-578.86	86.754	310.83	-571.8	54.427	282.38	-576.36	56.055	346.46	-408.37	38.544	398.12	-369.86	36.337	278.22	-306.38	47.46	327.35	-234.28	676.26	101.23	-124.91	613.3	95.123	-193.55	596.26	112.71	-170.01	690.74	80.079	-121.46	524.86	112.44	-100.83	516.01	238.19	-136.66	327.02	120.35	-40.234	272.9	108.4	-101.36	257.41	124.27	-75.217	341.32	103.57	9.9657	119.75	123.74	18.509	136.23	215.65	-44.686	61.519	177.24	-25.25	44.672	211.95	-30.691	36.403	150.72	137.03	99.949	96.62	169.52	129.61	207.26	212.54	159.86	153.99	-302.88	1550	292.61	-402.41	1292	277.29
227	0.94167	-137.97	1262.6	263.95	-231.14	1493	454.61	-277.6	1483.8	107.87	-130.04	1804.8	261.06	-177.39	982.35	409.64	-180.16	1004.6	160.91	-390.41	1017.6	307.58	-383.25	1020.3	226.65	-274.94	904.96	468.22	-284.48	914.73	89.148	-259.97	1073.4	450.65	-286.73	1083.3	115	-405.88	976.45	267.56	-322.81	654.95	448.14	-261.89	562.21	411.74	-337.34	566.07	433.07	-235.31	667.94	433.72	-334.55	492.57	421.63	-355.61	498.07	288.8	-468.76	294.12	409.48	-424.42	202.56	365.22	-487.58	227.52	389.44	-408.27	269.17	392.28	-505.66	114.34	365.38	-489.05	126.87	278.17	-578.19	88.311	310.65	-571.36	55.976	282.16	-575.97	57.557	346.24	-408.22	38.6	398.05	-369.65	36.239	278.21	-306.06	46.93	327.35	-228.68	675.49	101.1	-119.35	612.42	95.192	-188.02	595.48	112.74	-164.37	689.88	79.969	-115.89	524.05	112.59	-95.746	515.18	238.42	-130.8	326.12	120.28	-34.249	272.14	108.76	-95.441	256.57	124.31	-69.299	340.51	103.82	16.105	119.23	124.15	24.267	135.6	216.13	-38.712	61.038	177.32	-19.254	44.115	212.13	-24.503	35.964	150.83	143.28	99.877	97.494	175.25	129.41	208.25	218.4	159.89	155.23	-297.36	1549.3	292.05	-396.86	1291.2	276.87
228	0.94583	-132.37	1261.9	263.29	-225.47	1492.3	453.99	-272.13	1483.1	107.25	-124.22	1804.1	260.47	-171.62	981.75	409.28	-174.3	1004	160.52	-384.58	1016.8	307.1	-377.47	1019.5	226.16	-269.21	904.34	467.84	-278.54	913.96	88.781	-254.24	1072.7	450.24	-281.05	1082.5	114.57	-400.06	975.67	267.09	-317.21	654.39	447.83	-256.3	561.61	411.57	-331.8	565.52	432.75	-229.68	667.32	433.47	-329.38	491.94	421.43	-350.13	497.58	288.59	-465.72	294.91	409.35	-422.37	202.82	365.1	-485.28	228.49	389.26	-405.46	269.23	392.16	-504.7	115.49	365.28	-488.05	127.91	278.11	-577.45	90.032	310.51	-570.88	57.7	281.98	-575.53	59.216	346.05	-408.05	38.66	397.98	-369.44	36.157	278.21	-305.75	46.413	327.35	-222.95	674.78	100.95	-113.67	611.63	95.306	-182.36	594.75	112.75	-158.61	689.09	79.901	-110.2	523.29	112.75	-90.582	514.41	238.64	-125.12	325.3	120.2	-28.539	271.32	109.15	-89.823	255.77	124.34	-63.539	339.68	104.1	21.696	118.61	124.6	29.469	134.84	216.65	-33.413	60.622	177.4	-13.99	43.566	212.31	-19.042	35.559	150.94	148.92	99.482	98.46	180.39	128.78	209.36	223.74	159.43	156.6	-291.83	1548.7	291.47	-391.31	1290.4	276.43
229	0.95	-126.76	1261.2	262.62	-219.8	1491.6	453.35	-266.66	1482.3	106.62	-118.4	1803.3	259.86	-165.82	981.19	408.91	-168.41	1003.4	160.1	-378.74	1016.1	306.61	-371.67	1018.8	225.65	-263.44	903.74	467.45	-272.58	913.22	88.403	-248.48	1072	449.82	-275.35	1081.7	114.12	-394.22	974.92	266.59	-311.47	653.81	447.52	-250.51	561	411.42	-326.08	564.95	432.44	-223.91	666.71	433.24	-323.99	491.29	421.25	-344.45	497.05	288.41	-462.51	295.77	409.25	-420.2	203.12	365	-482.85	229.54	389.12	-402.51	269.33	392.07	-503.66	116.73	365.23	-486.91	129.03	278.07	-576.62	91.926	310.41	-570.34	59.611	281.82	-575.02	61.042	345.9	-407.86	38.727	397.92	-369.24	36.094	278.21	-305.45	45.908	327.34	-217.11	674.12	100.78	-107.86	610.91	95.461	-176.59	594.09	112.75	-152.73	688.38	79.876	-104.41	522.57	112.92	-85.342	513.68	238.85	-119.62	324.58	120.1	-23.092	270.43	109.58	-84.491	255	124.37	-57.931	338.85	104.4	26.764	117.9	125.09	34.144	133.95	217.2	-28.751	60.272	177.48	-9.4223	43.031	212.49	-14.278	35.192	151.05	154	98.771	99.507	184.96	127.75	210.56	228.6	158.48	158.09	-286.31	1548	290.87	-385.74	1289.7	275.97
230	0.95417	-121.14	1260.6	261.94	-214.13	1491	452.69	-261.22	1481.6	105.97	-112.59	1802.6	259.23	-160	980.65	408.52	-162.51	1002.8	159.67	-372.87	1015.3	306.11	-365.87	1018.1	225.13	-257.63	903.16	467.03	-266.59	912.51	88.017	-242.72	1071.3	449.38	-269.63	1080.9	113.65	-388.37	974.19	266.09	-305.57	653.21	447.22	-244.53	560.39	411.31	-320.17	564.34	432.14	-217.99	666.12	433.04	-318.38	490.62	421.09	-338.55	496.48	288.24	-459.13	296.68	409.19	-417.91	203.48	364.93	-480.26	230.66	389.01	-399.41	269.47	392.01	-502.53	118.08	365.22	-485.63	130.23	278.07	-575.69	94.006	310.37	-569.74	61.721	281.7	-574.45	63.049	345.78	-407.66	38.805	397.87	-369.05	36.051	278.21	-305.16	45.418	327.31	-211.18	673.51	100.6	-101.94	610.27	95.656	-170.72	593.48	112.72	-146.74	687.74	79.892	-98.519	521.9	113.09	-80.036	513	239.04	-114.28	323.93	119.99	-17.893	269.49	110.03	-79.426	254.27	124.4	-52.467	338	104.72	31.342	117.11	125.6	38.327	132.95	217.79	-24.682	59.994	177.57	-5.51	42.518	212.67	-10.171	34.865	151.16	158.53	97.758	100.62	189.02	126.34	211.84	233	157.08	159.67	-280.78	1547.4	290.24	-380.17	1289	275.48
231	0.95833	-115.52	1260	261.24	-208.47	1490.3	452	-255.78	1480.9	105.3	-106.77	1801.9	258.58	-154.15	980.16	408.11	-156.59	1002.3	159.22	-366.99	1014.6	305.6	-360.06	1017.5	224.6	-251.77	902.6	466.61	-260.58	911.83	87.622	-236.93	1070.7	448.92	-263.89	1080.1	113.17	-382.51	973.49	265.56	-299.52	652.59	446.93	-238.35	559.79	411.24	-314.06	563.72	431.86	-211.92	665.55	432.87	-312.55	489.95	420.97	-332.44	495.88	288.11	-455.57	297.65	409.16	-415.49	203.9	364.89	-477.53	231.87	388.95	-396.17	269.66	391.97	-501.29	119.55	365.25	-484.18	131.53	278.12	-574.66	96.283	310.37	-569.05	64.044	281.62	-573.79	65.247	345.71	-407.44	38.898	397.83	-368.87	36.03	278.22	-304.87	44.942	327.28	-205.17	672.95	100.4	-95.923	609.7	95.885	-164.76	592.92	112.68	-140.66	687.17	79.945	-92.554	521.28	113.27	-74.677	512.37	239.21	-109.1	323.35	119.87	-12.924	268.51	110.5	-74.609	253.56	124.43	-47.139	337.15	105.05	35.467	116.23	126.13	42.059	131.84	218.39	-21.152	59.788	177.65	-2.2023	42.036	212.83	-6.6721	34.581	151.26	162.56	96.463	101.79	192.59	124.57	213.18	236.98	155.25	161.32	-275.25	1546.8	289.59	-374.58	1288.4	274.97
232	0.9625	-109.88	1259.4	260.52	-202.81	1489.8	451.3	-250.36	1480.3	104.62	-100.96	1801.2	257.91	-148.27	979.7	407.67	-150.65	1001.8	158.75	-361.09	1013.9	305.07	-354.24	1016.8	224.05	-245.87	902.06	466.16	-254.55	911.19	87.218	-231.13	1070.2	448.45	-258.12	1079.4	112.66	-376.63	972.82	265.03	-293.32	651.96	446.65	-231.98	559.18	411.21	-307.76	563.07	431.6	-205.7	664.99	432.73	-306.5	489.26	420.87	-326.1	495.24	288	-451.83	298.69	409.16	-412.93	204.39	364.88	-474.63	233.17	388.93	-392.76	269.91	391.97	-499.95	121.14	365.34	-482.56	132.93	278.2	-573.49	98.768	310.41	-568.27	66.592	281.56	-573.05	67.651	345.67	-407.2	39.012	397.79	-368.7	36.033	278.23	-304.61	44.48	327.24	-199.08	672.45	100.19	-89.832	609.19	96.144	-158.73	592.42	112.62	-134.5	686.66	80.032	-86.527	520.7	113.45	-69.28	511.77	239.37	-104.06	322.86	119.73	-8.165	267.48	111	-70.016	252.89	124.45	-41.939	336.3	105.4	39.182	115.3	126.66	45.382	130.65	219	-18.105	59.656	177.74	0.55782	41.592	212.99	-3.727	34.344	151.35	166.12	94.913	102.99	195.72	122.48	214.56	240.59	153.02	163.01	-269.73	1546.3	288.92	-368.98	1287.7	274.44
